<svg xmlns="http://www.w3.org/2000/svg" version="1.1" xmlns:xlink="http://www.w3.org/1999/xlink" xmlns:svgjs="http://svgjs.dev/svgjs" width="1440" height="560" preserveAspectRatio="none" viewBox="0 0 1440 560"><g mask="url(&quot;#SvgjsMask2262&quot;)" fill="none"><rect width="1440" height="560" x="0" y="0" fill="rgba(0, 31, 41, 1)"></rect><path d="M -90.52923285082875,145 C 5.47,211.4 197.47,466.8 389.47076714917125,477 C 581.47,487.2 677.47,209.8 869.4707671491713,196 C 1061.47,182.2 1157.47,415.6 1349.4707671491713,408 C 1541.47,400.4 1811.36,151.8 1829.4707671491713,158 C 1847.58,164.2 1517.89,382.8 1440,439" stroke="rgba(0, 64, 89, 1)" stroke-width="2"></path><path d="M -232.69825057229633,305 C -136.7,265 55.3,77.8 247.30174942770367,105 C 439.3,132.2 535.3,430.4 727.3017494277037,441 C 919.3,451.6 1015.3,167.6 1207.3017494277037,158 C 1399.3,148.4 1640.76,378.8 1687.3017494277037,393 C 1733.84,407.2 1489.46,261.8 1440,229" stroke="rgba(0, 64, 89, 1)" stroke-width="2"></path><path d="M -513.1517610454796,218 C -417.15,245.2 -225.15,363.8 -33.15176104547959,354 C 158.85,344.2 254.85,163 446.8482389545204,169 C 638.85,175 734.85,374 926.8482389545204,384 C 1118.85,394 1304.22,218.4 1406.8482389545204,219 C 1509.48,219.6 1433.37,353.4 1440,387" stroke="rgba(0, 64, 89, 1)" stroke-width="2"></path><path d="M -164.8690007674768,81 C -68.87,140 123.13,374 315.1309992325232,376 C 507.13,378 603.13,87 795.1309992325232,91 C 987.13,95 1083.13,366 1275.1309992325232,396 C 1467.13,426 1722.16,242.6 1755.1309992325232,241 C 1788.1,239.4 1503.03,358.6 1440,388" stroke="rgba(0, 64, 89, 1)" stroke-width="2"></path></g><defs><mask id="SvgjsMask2262"><rect width="1440" height="560" fill="#ffffff"></rect></mask></defs></svg>