<svg width="32" height="35" viewBox="0 0 32 35" fill="none" xmlns="http://www.w3.org/2000/svg">
<path d="M31.2695 5.65406C30.7829 5.16687 30.2055 4.92324 29.5389 4.92324H27.0776V3.07699C27.0776 2.23099 26.776 1.50657 26.1735 0.903996C25.5707 0.301422 24.8466 0 24.0002 0H22.7698C21.9234 0 21.1991 0.301422 20.5966 0.904063C19.9938 1.50657 19.6925 2.23106 19.6925 3.07706V4.92331H12.3082V3.07706C12.3082 2.23106 12.0068 1.50664 11.4041 0.904063C10.8016 0.301422 10.0772 0 9.23091 0H8.00024C7.1541 0 6.42968 0.301422 5.82704 0.904063C5.22453 1.50657 4.92304 2.23106 4.92304 3.07706V4.92331H2.46169C1.79486 4.92331 1.21801 5.16694 0.730821 5.65413C0.24363 6.14126 0 6.71837 0 7.385V32.0007C0 32.6669 0.24363 33.2439 0.730821 33.7313C1.21795 34.2184 1.79479 34.4621 2.46169 34.4621H29.5384C30.205 34.4621 30.7825 34.2185 31.269 33.7313C31.7563 33.2441 32 32.6668 32 32.0007V7.38493C31.9999 6.7181 31.7565 6.14126 31.2695 5.65406ZM22.1544 3.07726C22.1544 2.89762 22.2116 2.75004 22.3268 2.63493C22.4421 2.51968 22.5896 2.46196 22.7694 2.46196H23.9998C24.1797 2.46196 24.3267 2.51948 24.4424 2.63493C24.5577 2.75025 24.6153 2.89782 24.6153 3.07726V8.61561C24.6153 8.79518 24.5577 8.94249 24.4424 9.05794C24.3266 9.17305 24.1797 9.23091 23.9998 9.23091H22.7694C22.5896 9.23091 22.4421 9.17332 22.3268 9.05794C22.2116 8.94242 22.1544 8.79518 22.1544 8.61561V3.07726ZM7.38493 3.07726C7.38493 2.89762 7.44252 2.75004 7.5579 2.63493C7.67335 2.51968 7.82066 2.46196 8.00024 2.46196H9.23091C9.41055 2.46196 9.55813 2.51948 9.67324 2.63493C9.78849 2.75025 9.84635 2.89782 9.84635 3.07726V8.61561C9.84635 8.79518 9.78876 8.94269 9.67324 9.05794C9.55786 9.17305 9.41055 9.23091 9.23091 9.23091H8.00024C7.82066 9.23091 7.67315 9.17332 7.5579 9.05794C7.44279 8.94242 7.38493 8.79518 7.38493 8.61561V3.07726ZM29.5384 32.0004H2.46169V12.308H29.5384V32.0004Z" fill="#E5E5E5"/>
</svg>
