<svg width="22" height="26" viewBox="0 0 22 26" fill="none" xmlns="http://www.w3.org/2000/svg">
<path d="M11.001 25.9649C10.8694 25.9657 10.7389 25.9405 10.6171 25.8907C10.4953 25.841 10.3845 25.7676 10.291 25.6749L3.22101 18.6749C2.20028 17.6609 1.39019 16.455 0.83739 15.1267C0.284591 13.7983 0 12.3737 0 10.9349C0 9.49615 0.284591 8.07157 0.83739 6.74321C1.39019 5.41485 2.20028 4.20895 3.22101 3.19494C5.29304 1.14792 8.08835 0 11.001 0C13.9137 0 16.709 1.14792 18.781 3.19494C19.8018 4.20895 20.6118 5.41485 21.1646 6.74321C21.7174 8.07157 22.002 9.49615 22.002 10.9349C22.002 12.3737 21.7174 13.7983 21.1646 15.1267C20.6118 16.455 19.8018 17.6609 18.781 18.6749L11.711 25.6749C11.6176 25.7676 11.5068 25.841 11.3849 25.8907C11.2631 25.9405 11.1326 25.9657 11.001 25.9649ZM11.001 1.96494C8.61427 1.95909 6.32295 2.90152 4.63101 4.58494C3.79773 5.41303 3.13643 6.39772 2.68517 7.48236C2.23391 8.567 2.0016 9.73017 2.0016 10.9049C2.0016 12.0797 2.23391 13.2429 2.68517 14.3275C3.13643 15.4122 3.79773 16.3969 4.63101 17.2249L11.001 23.5549L17.371 17.2249C18.2043 16.3969 18.8656 15.4122 19.3169 14.3275C19.7681 13.2429 20.0004 12.0797 20.0004 10.9049C20.0004 9.73017 19.7681 8.567 19.3169 7.48236C18.8656 6.39772 18.2043 5.41303 17.371 4.58494C15.6791 2.90152 13.3878 1.95909 11.001 1.96494Z" fill="#E5E5E5"/>
<path d="M11.001 15.9648C10.0121 15.9648 9.04537 15.6716 8.22313 15.1222C7.40088 14.5728 6.76002 13.7919 6.38158 12.8783C6.00314 11.9646 5.90413 10.9593 6.09705 9.9894C6.28998 9.01949 6.76618 8.12858 7.46545 7.42931C8.16471 6.73005 9.05562 6.25385 10.0255 6.06092C10.9954 5.86799 12.0008 5.96701 12.9144 6.34545C13.828 6.72389 14.6089 7.36475 15.1583 8.187C15.7077 9.00924 16.001 9.97594 16.001 10.9648C16.001 12.2909 15.4742 13.5627 14.5365 14.5004C13.5988 15.4381 12.3271 15.9648 11.001 15.9648ZM11.001 7.96485C10.4076 7.96485 9.82762 8.14079 9.33427 8.47044C8.84092 8.80008 8.4564 9.26862 8.22934 9.8168C8.00228 10.365 7.94287 10.9682 8.05862 11.5501C8.17438 12.1321 8.4601 12.6666 8.87966 13.0862C9.29922 13.5057 9.83377 13.7914 10.4157 13.9072C10.9977 14.023 11.6009 13.9635 12.149 13.7365C12.6972 13.5094 13.1657 13.1249 13.4954 12.6316C13.825 12.1382 14.001 11.5582 14.001 10.9648C14.001 10.1692 13.6849 9.40613 13.1223 8.84353C12.5597 8.28092 11.7966 7.96485 11.001 7.96485Z" fill="#E5E5E5"/>
</svg>
