<?xml version="1.0" ?><!DOCTYPE svg  PUBLIC '-//W3C//DTD SVG 1.1//EN'  'http://www.w3.org/Graphics/SVG/1.1/DTD/svg11.dtd'><svg enable-background="new 0 0 128 128" id="Слой_1" version="1.1" viewBox="0 0 128 128" xml:space="preserve" xmlns="http://www.w3.org/2000/svg" xmlns:xlink="http://www.w3.org/1999/xlink"><g><path d="M27.7,126h72.6V2H27.7V126z M31.7,6h64.6v116H31.7V6z" fill="#000000"/><path d="M36.7,50.6h54.6V11H36.7V50.6z M66,30.9c8.3,0.9,14.8,7.4,15.8,15.7H66V30.9z M62,46.6H46.2   c1-8.2,7.6-14.7,15.8-15.7V46.6z M40.7,15h46.6v31.6h-1.4c-1-10.4-9.4-18.7-19.9-19.7v-5.1h-4v5.1c-10.5,0.9-18.8,9.3-19.9,19.7   h-1.4V15z" fill="#000000"/><path d="M50.7,61.6c0-3.9-3.1-7-7-7s-7,3.1-7,7s3.1,7,7,7S50.7,65.4,50.7,61.6z M40.7,61.6c0-1.7,1.3-3,3-3   s3,1.3,3,3s-1.3,3-3,3S40.7,63.2,40.7,61.6z" fill="#000000"/><path d="M63.7,54.6c-3.9,0-7,3.1-7,7s3.1,7,7,7s7-3.1,7-7S67.6,54.6,63.7,54.6z M63.7,64.6c-1.7,0-3-1.3-3-3   s1.3-3,3-3c1.7,0,3,1.3,3,3S65.4,64.6,63.7,64.6z" fill="#000000"/><path d="M83.7,54.6c-3.9,0-7,3.1-7,7s3.1,7,7,7s7-3.1,7-7S87.6,54.6,83.7,54.6z M83.7,64.6c-1.7,0-3-1.3-3-3   s1.3-3,3-3s3,1.3,3,3S85.4,64.6,83.7,64.6z" fill="#000000"/><path d="M47.5,114.4c1.1,1,2.2,1.9,3.5,2.6l2.1-3.4c-1-0.6-2-1.4-2.9-2.2L47.5,114.4z" fill="#000000"/><path d="M54.8,119c1.3,0.5,2.7,1,4.2,1.3l0.8-3.9c-1.2-0.2-2.4-0.6-3.5-1.1L54.8,119z" fill="#000000"/><path d="M63.4,116.8l-0.1,4c0.2,0,0.5,0,0.7,0c1.2,0,2.4-0.1,3.6-0.3l-0.6-4C65.9,116.7,64.6,116.8,63.4,116.8z" fill="#000000"/><path d="M70.6,115.7l1.3,3.8c1.4-0.5,2.7-1.1,4-1.8l-1.9-3.5C72.8,114.8,71.7,115.3,70.6,115.7z" fill="#000000"/><path d="M76.9,112.2l2.5,3.1c1.1-0.9,2.2-1.9,3.1-3l-3-2.6C78.7,110.6,77.9,111.4,76.9,112.2z" fill="#000000"/><path d="M52,79.7l-2.3-3.2c-1.2,0.8-2.3,1.8-3.3,2.8l2.9,2.8C50.1,81.2,51,80.4,52,79.7z" fill="#000000"/><path d="M41.6,86.5l3.7,1.6c0.5-1.1,1.1-2.2,1.8-3.2l-3.3-2.2C42.8,83.8,42.1,85.1,41.6,86.5z" fill="#000000"/><path d="M45.8,105.7l-3.6,1.8c0.7,1.3,1.4,2.5,2.3,3.7l3.2-2.4C47,107.8,46.3,106.8,45.8,105.7z" fill="#000000"/><path d="M44.1,91.5l-3.9-0.9c-0.3,1.4-0.5,2.9-0.6,4.3l4,0.2C43.6,93.9,43.8,92.7,44.1,91.5z" fill="#000000"/><path d="M43.6,98.8l-4,0.5c0.2,1.4,0.5,2.9,0.9,4.3l3.8-1.2C44,101.2,43.8,100,43.6,98.8z" fill="#000000"/><path d="M88.5,94.7c-0.1-1.4-0.3-2.9-0.7-4.3l-3.9,1c0.3,1.2,0.5,2.4,0.5,3.6L88.5,94.7z" fill="#000000"/><path d="M81,84.8c0.7,1,1.3,2.1,1.8,3.2l3.7-1.6c-0.6-1.3-1.3-2.6-2.1-3.8L81,84.8z" fill="#000000"/><path d="M75.9,79.6c1,0.7,1.9,1.5,2.8,2.4l2.9-2.8c-1-1-2.1-2-3.3-2.8L75.9,79.6z" fill="#000000"/><path d="M55.1,77.8c1.1-0.5,2.2-1,3.4-1.3l-1.1-3.9c-1.4,0.4-2.8,0.9-4.1,1.5L55.1,77.8z" fill="#000000"/><path d="M84.2,99.9l3.9,0.7c0.3-1.4,0.4-2.9,0.4-4.3h-4C84.5,97.5,84.4,98.7,84.2,99.9z" fill="#000000"/><path d="M81.7,106.7l3.4,2c0.7-1.3,1.4-2.6,1.9-3.9l-3.8-1.4C82.8,104.5,82.3,105.7,81.7,106.7z" fill="#000000"/><path d="M62.1,75.9c0.6-0.1,1.2-0.1,1.9-0.1c0.6,0,1.2,0,1.8,0.1l0.3-4c-0.7-0.1-1.4-0.1-2.1-0.1   c-0.8,0-1.5,0-2.2,0.1L62.1,75.9z" fill="#000000"/><path d="M72.8,77.7l1.7-3.6c-1.3-0.6-2.7-1.1-4.1-1.5l-1,3.9C70.5,76.8,71.7,77.2,72.8,77.7z" fill="#000000"/><path d="M64,78.3c-9.9,0-18,8.1-18,18s8.1,18,18,18c9.9,0,18-8.1,18-18S73.9,78.3,64,78.3z M64,110.3   c-7.7,0-14-6.3-14-14s6.3-14,14-14s14,6.3,14,14S71.7,110.3,64,110.3z" fill="#000000"/></g></svg>