<?xml version="1.0" standalone="no"?>
<!DOCTYPE svg PUBLIC "-//W3C//DTD SVG 20010904//EN"
 "http://www.w3.org/TR/2001/REC-SVG-20010904/DTD/svg10.dtd">
<svg version="1.0" xmlns="http://www.w3.org/2000/svg"
 width="260.000000pt" height="260.000000pt" viewBox="0 0 260.000000 260.000000"
 preserveAspectRatio="xMidYMid meet">
<metadata>
Created by potrace 1.14, written by Peter Selinger 2001-2017
</metadata>
<g transform="translate(0.000000,260.000000) scale(0.100000,-0.100000)"
fill="#000000" stroke="none">
<path d="M0 1300 l0 -1300 1300 0 1300 0 0 1300 0 1300 -1300 0 -1300 0 0
-1300z m1955 655 l0 -170 -405 -3 -405 -2 2 -113 2 -112 376 -3 375 -2 -2
-163 -3 -162 -375 -3 -375 -2 2 -153 2 -152 418 -5 418 -5 0 -180 0 -180 -665
0 -665 0 -3 780 c-1 429 0 786 3 793 3 10 139 12 652 10 l648 -3 0 -170z"/>
</g>
</svg>
